<svg id="instagram-logo" xmlns="http://www.w3.org/2000/svg" width="28.12" height="28.12" viewBox="0 0 28.12 28.12">
  <defs>
    <style>
      .cls-1 {
        fill: #c4c2c2;
      }
    </style>
  </defs>
  <path id="Path_16" data-name="Path 16" class="cls-1" d="M20.36,0H7.76A7.769,7.769,0,0,0,0,7.76v12.6a7.769,7.769,0,0,0,7.76,7.76h12.6a7.769,7.769,0,0,0,7.76-7.76V7.76A7.769,7.769,0,0,0,20.36,0Zm5.265,20.36a5.271,5.271,0,0,1-5.265,5.265H7.76A5.271,5.271,0,0,1,2.495,20.36V7.76A5.271,5.271,0,0,1,7.76,2.495h12.6A5.271,5.271,0,0,1,25.625,7.76v12.6Z"/>
  <path id="Path_17" data-name="Path 17" class="cls-1" d="M48.214,40.97a7.246,7.246,0,1,0,7.246,7.246A7.254,7.254,0,0,0,48.214,40.97Zm0,12a4.751,4.751,0,1,1,4.751-4.75A4.756,4.756,0,0,1,48.214,52.966Z" transform="translate(-34.154 -34.156)"/>
  <path id="Path_18" data-name="Path 18" class="cls-1" d="M120.751,28.251a1.829,1.829,0,1,0,1.294.536A1.837,1.837,0,0,0,120.751,28.251Z" transform="translate(-99.141 -23.552)"/>
</svg>
