<svg xmlns="http://www.w3.org/2000/svg" width="28.12" height="19.131" viewBox="0 0 28.12 19.131">
  <defs>
    <style>
      .cls-1 {
        fill: #c4c2c2;
      }
    </style>
  </defs>
  <g id="mail" transform="translate(0 0)">
    <path id="Path_14" data-name="Path 14" class="cls-1" d="M49.668,68.747l-9.106,8.024-9.108-8.024A.875.875,0,1,0,30.3,70.06l9.686,8.534a.875.875,0,0,0,1.157,0l9.685-8.534a.875.875,0,1,0-1.157-1.313Z" transform="translate(-26.501 -65.029)"/>
    <path id="Path_15" data-name="Path 15" class="cls-1" d="M25.5,38.529H2.625A2.628,2.628,0,0,0,0,41.154V55.035A2.628,2.628,0,0,0,2.625,57.66H25.5a2.628,2.628,0,0,0,2.625-2.625V41.154A2.628,2.628,0,0,0,25.5,38.529Zm.875,16.506a.876.876,0,0,1-.875.875H2.625a.876.876,0,0,1-.875-.875V41.154a.876.876,0,0,1,.875-.875H25.5a.876.876,0,0,1,.875.875Z" transform="translate(0 -38.529)"/>
  </g>
</svg>
