<svg xmlns="http://www.w3.org/2000/svg" width="27.484" height="18.863" viewBox="0 0 27.484 18.863">
  <defs>
    <style>
      .cls-1 {
        fill: #c4c2c2;
      }
    </style>
  </defs>
  <g id="visit-card" transform="translate(0 -40.882)">
    <path id="Path_21" data-name="Path 21" class="cls-1" d="M24.953,40.882H2.53A2.533,2.533,0,0,0,0,43.412v13.8a2.533,2.533,0,0,0,2.53,2.53H24.953a2.533,2.533,0,0,0,2.53-2.53v-13.8A2.533,2.533,0,0,0,24.953,40.882ZM25.9,57.214a.95.95,0,0,1-.949.949H2.53a.95.95,0,0,1-.949-.949v-13.8a.95.95,0,0,1,.949-.949H24.953a.95.95,0,0,1,.949.949Z"/>
    <path id="Path_22" data-name="Path 22" class="cls-1" d="M149.008,83.7H141.74a.633.633,0,1,0,0,1.265h7.268a.633.633,0,0,0,0-1.265Z" transform="translate(-126.229 -38.306)"/>
    <path id="Path_23" data-name="Path 23" class="cls-1" d="M149.008,164.963H141.74a.633.633,0,1,0,0,1.265h7.268a.633.633,0,0,0,0-1.265Z" transform="translate(-126.229 -110.998)"/>
    <path id="Path_24" data-name="Path 24" class="cls-1" d="M173.353,118.411h-4.4a.633.633,0,1,0,0,1.265h4.4a.633.633,0,1,0,0-1.265Z" transform="translate(-150.575 -69.355)"/>
    <path id="Path_25" data-name="Path 25" class="cls-1" d="M173.353,141.686h-4.4a.633.633,0,1,0,0,1.265h4.4a.633.633,0,1,0,0-1.265Z" transform="translate(-150.575 -90.176)"/>
    <path id="Path_26" data-name="Path 26" class="cls-1" d="M43.543,83.7a4.917,4.917,0,0,0,0,9.833.633.633,0,1,0,0-1.265,3.651,3.651,0,1,1,3.651-3.651v1.071a.438.438,0,0,1-.877,0V88.619a2.779,2.779,0,1,0-.935,2.075,1.7,1.7,0,0,0,3.077-1V88.619A4.922,4.922,0,0,0,43.543,83.7Zm0,6.426a1.509,1.509,0,1,1,1.509-1.509A1.511,1.511,0,0,1,43.543,90.129Z" transform="translate(-34.554 -38.306)"/>
  </g>
</svg>
