<svg xmlns="http://www.w3.org/2000/svg" width="29.735" height="28.991" viewBox="0 0 29.735 28.991">
  <path id="adobephotoshop" d="M7.31,7.71c0-.074.025-.136.124-.136.781-.037,1.9-.062,3.1-.062,3.345,0,4.807,1.834,4.807,4.188,0,3.073-2.255,4.386-4.981,4.386-.458,0-.619-.025-.942-.025v4.708c0,.1-.037.136-.136.136H7.446c-.1,0-.136-.037-.136-.136Zm2.106,6.418c.273.025.5.025.979.025,1.412,0,2.763-.5,2.763-2.416,0-1.536-.966-2.317-2.589-2.317-.483,0-.942.025-1.152.037Zm10.8-1.437c-.954,0-1.276.483-1.276.88,0,.434.223.743,1.5,1.4,1.9.917,2.49,1.8,2.49,3.1,0,1.933-1.474,2.973-3.469,2.973a5.487,5.487,0,0,1-2.515-.52.191.191,0,0,1-.1-.2V18.538c0-.124.062-.161.136-.1a4.65,4.65,0,0,0,2.478.719c.954,0,1.35-.4,1.35-.942,0-.434-.273-.818-1.5-1.462-1.722-.818-2.428-1.66-2.428-3.048,0-1.561,1.214-2.85,3.333-2.85a5.979,5.979,0,0,1,2.205.335.268.268,0,0,1,.124.235v1.66a.119.119,0,0,1-.173.124A4.508,4.508,0,0,0,20.22,12.691ZM5.266.45A5.261,5.261,0,0,0,0,5.715v18.46a5.261,5.261,0,0,0,5.266,5.265h19.2a5.261,5.261,0,0,0,5.266-5.265V5.715A5.261,5.261,0,0,0,24.469.45Zm.471,1.239h18.25a4.5,4.5,0,0,1,4.5,4.5V23.692A4.49,4.49,0,0,1,24,28.2H5.736a4.5,4.5,0,0,1-4.5-4.5V6.186A4.5,4.5,0,0,1,5.736,1.689Z" transform="translate(0 -0.45)" fill="#fff"/>
</svg>
