<svg xmlns="http://www.w3.org/2000/svg" width="30.121" height="29.367" viewBox="0 0 30.121 29.367">
  <path id="adobexd" d="M24.787.45H5.334A5.329,5.329,0,0,0,0,5.784v18.7a5.329,5.329,0,0,0,5.334,5.334H24.787a5.329,5.329,0,0,0,5.334-5.334V5.784A5.329,5.329,0,0,0,24.787.45Zm4.066,23.544a4.547,4.547,0,0,1-4.543,4.568H5.811a4.563,4.563,0,0,1-4.556-4.556V6.261A4.563,4.563,0,0,1,5.811,1.705H24.3a4.556,4.556,0,0,1,4.556,4.556Zm-16.943-9.8,3.514,6.752c.063.1.025.2-.075.2H13.165a.246.246,0,0,1-.264-.163c-.8-1.657-1.619-3.313-2.46-5.1h-.025c-.753,1.682-1.581,3.451-2.385,5.108a.241.241,0,0,1-.226.138H5.736c-.126,0-.138-.1-.075-.176L9.1,14.406,5.773,7.779A.1.1,0,0,1,5.848,7.6H8.007a.2.2,0,0,1,.226.138c.791,1.657,1.594,3.363,2.347,5.033h.025c.728-1.657,1.531-3.376,2.309-5.02.063-.1.1-.163.226-.163h2.021c.1,0,.138.075.075.176Zm4.129,2.046a4.909,4.909,0,0,1,5.033-5.208,5.566,5.566,0,0,1,.653.025V7.729A.126.126,0,0,1,21.85,7.6h1.983c.1,0,.126.038.126.1V19.225a8.939,8.939,0,0,0,.063,1.23c0,.075-.025.1-.1.138a7.476,7.476,0,0,1-3.213.728C17.985,21.333,16.039,19.652,16.039,16.238Zm5.685-3.213A1.9,1.9,0,0,0,21,12.9c-1.581,0-2.686,1.217-2.686,3.238,0,2.309,1.13,3.238,2.548,3.238a2.368,2.368,0,0,0,.866-.138V13.025Z" transform="translate(0 -0.45)" fill="#fff"/>
</svg>
