<svg id="Component_30_3" data-name="Component 30 – 3" xmlns="http://www.w3.org/2000/svg" width="29.735" height="28.991" viewBox="0 0 29.735 28.991">
  <path id="adobephotoshop" d="M22.376,13.211ZM5.266.45A5.261,5.261,0,0,0,0,5.715v18.46a5.261,5.261,0,0,0,5.266,5.265h19.2a5.261,5.261,0,0,0,5.266-5.265V5.715A5.261,5.261,0,0,0,24.469.45Zm.471,1.239h18.25a4.5,4.5,0,0,1,4.5,4.5V23.692A4.49,4.49,0,0,1,24,28.2H5.736a4.5,4.5,0,0,1-4.5-4.5V6.186A4.5,4.5,0,0,1,5.736,1.689Z" transform="translate(0 -0.45)" fill="#fff"/>
  <g id="camera-shutter" transform="translate(7.688 7)">
    <g id="Group_24" data-name="Group 24" transform="translate(0)">
      <path id="Path_12" data-name="Path 12" d="M46.862,52.866a6.016,6.016,0,0,1-1.157-.112.224.224,0,1,0-.087.441,6.449,6.449,0,1,0-1.045-.3.224.224,0,1,0,.16-.42,5.979,5.979,0,0,1-2.125-1.387l5.341-3.084.035,4.755A6.013,6.013,0,0,1,46.862,52.866Zm4.23-10.259-1,.587a.224.224,0,1,0,.227.387l1.087-.638a6,6,0,0,1,1.25,5.493l-5.348-3.087,2.1-1.236a.224.224,0,0,0-.227-.387l-3.408,1.992v-4.76a6,6,0,0,1,5.315,1.65Zm-4.23,5.508-1.085-.626V46.236l1.085-.626,1.085.626v1.252Zm-1.534-7.057v6.175l-4.135-2.347A6.029,6.029,0,0,1,45.329,41.058Zm-4.47,5.8a5.991,5.991,0,0,1,.2-1.538l5.355,3.049L42.3,50.75A6.016,6.016,0,0,1,40.859,46.862ZM48.4,46.5l4.122,2.38a6.029,6.029,0,0,1-4.086,3.782Z" transform="translate(-39.201 -39.201)" fill="#fff"/>
      <path id="Path_13" data-name="Path 13" d="M13.08,2.244A7.662,7.662,0,0,0,2.993,1.587a.224.224,0,0,0,.274.356A7.145,7.145,0,0,1,7.662.449,7.213,7.213,0,1,1,2.505,2.618.224.224,0,0,0,2.184,2.3,7.662,7.662,0,0,0,13.08,13.08a7.662,7.662,0,0,0,0-10.835Z" transform="translate(0)" fill="#fff"/>
    </g>
  </g>
</svg>
